<svg width="27" height="24" viewBox="0 0 27 24" fill="none" xmlns="http://www.w3.org/2000/svg">
<path d="M11.1485 19.3333V3.44444L26 1V16.8889" stroke="#489582" stroke-width="2" stroke-linecap="round" stroke-linejoin="round"/>
<path d="M7.43565 22.9998C9.48621 22.9998 11.1485 21.3582 11.1485 19.3332C11.1485 17.3081 9.48621 15.6665 7.43565 15.6665C5.38509 15.6665 3.72278 17.3081 3.72278 19.3332C3.72278 21.3582 5.38509 22.9998 7.43565 22.9998Z" stroke="#489582" stroke-width="2" stroke-linecap="round" stroke-linejoin="round"/>
<path d="M22.2872 20.5555C24.3377 20.5555 26 18.9139 26 16.8888C26 14.8638 24.3377 13.2222 22.2872 13.2222C20.2366 13.2222 18.5743 14.8638 18.5743 16.8888C18.5743 18.9139 20.2366 20.5555 22.2872 20.5555Z" stroke="#489582" stroke-width="2" stroke-linecap="round" stroke-linejoin="round"/>
<path d="M8.21291 5.15576H1" stroke="#489582" stroke-width="2" stroke-linecap="round" stroke-linejoin="round"/>
<path d="M7.60016 9.06689H1.99011" stroke="#489582" stroke-width="2" stroke-linecap="round" stroke-linejoin="round"/>
<path d="M7.60016 12.9775H1.99011" stroke="#489582" stroke-width="2" stroke-linecap="round" stroke-linejoin="round"/>
</svg>
